<svg width="56" height="56" viewBox="0 0 56 56" fill="none" xmlns="http://www.w3.org/2000/svg">
<g clip-path="url(#clip0_702_407)">
<path d="M20.2119 20.246C26.6683 11.269 23.8911 3.96203 23.8989 3.95336C23.762 3.58743 23.9477 3.17989 24.3136 3.043C24.4982 2.97395 24.7033 2.98508 24.8793 3.07362C36.5319 8.6495 41.5463 15.8475 42.5065 22.3552C42.8882 24.8836 42.6496 27.4669 41.8112 29.8827C41.0429 32.1117 39.7632 34.1298 38.0746 35.7752C34.8264 38.9121 30.2871 40.3582 25.807 38.8922C24.661 38.5183 23.5796 37.9698 22.601 37.2659C20.6379 35.857 19.1487 33.8852 18.3307 31.6114C17.4627 29.1795 17.4351 26.527 18.2524 24.0777C18.7037 22.7068 19.3647 21.4142 20.2119 20.246Z" fill="#272727"/>
<path d="M24.0409 4.18513C23.7571 3.91668 23.7446 3.46896 24.013 3.18519C24.2815 2.90143 24.7292 2.8889 25.013 3.15735C25.0339 3.1771 25.0534 3.1981 25.0718 3.22025C25.0978 3.24366 30.7238 9.14088 31.5275 20.5389L31.5359 20.6458C31.7094 23.3099 31.6237 25.9844 31.2802 28.6319L35.1271 25.6837C35.4493 25.4628 35.8896 25.5449 36.1105 25.8671C36.3105 26.1588 36.2643 26.5533 36.0025 26.791L30.9749 30.6321C29.8494 37.2492 25.8817 46.6104 31.1341 52.4694C31.3871 52.7671 31.3509 53.2135 31.0531 53.4665C30.7698 53.7073 30.3484 53.6875 30.0887 53.4213C23.7902 46.4007 28.3733 37.7035 29.6276 30.1826L29.6441 30.0771C30.1542 27.0842 30.329 24.0437 30.1653 21.0121L25.6434 17.699C25.3209 17.4785 25.2382 17.0383 25.4587 16.7158C25.6791 16.3933 26.1193 16.3106 26.4418 16.531C26.4552 16.5402 26.4683 16.5497 26.4809 16.5598L29.9846 19.1392C28.8917 9.25884 24.0614 4.20882 24.0409 4.18513Z" fill="white"/>
</g>
<defs>
<clipPath id="clip0_702_407">
<rect width="38.8832" height="38.8832" fill="white" transform="translate(0.734619 29.0383) rotate(-48)"/>
</clipPath>
</defs>
</svg>
