<svg id="svg" version="1.1" xmlns="http://www.w3.org/2000/svg" xmlns:xlink="http://www.w3.org/1999/xlink" width="400" height="405.03355704697987" viewBox="0, 0, 400,405.03355704697987"><g id="svgg"><path id="path0" d="M188.848 0.243 C 189.451 0.318,190.357 0.316,190.862 0.240 C 191.366 0.163,190.872 0.102,189.765 0.104 C 188.658 0.106,188.245 0.169,188.848 0.243 M216.191 0.240 C 216.699 0.317,217.529 0.317,218.037 0.240 C 218.544 0.163,218.129 0.101,217.114 0.101 C 216.099 0.101,215.684 0.163,216.191 0.240 M184.815 0.572 C 185.231 0.652,185.910 0.652,186.326 0.572 C 186.741 0.492,186.401 0.427,185.570 0.427 C 184.740 0.427,184.400 0.492,184.815 0.572 M220.050 0.572 C 220.466 0.652,221.145 0.652,221.560 0.572 C 221.976 0.492,221.636 0.427,220.805 0.427 C 219.975 0.427,219.635 0.492,220.050 0.572 M181.464 0.908 C 181.881 0.989,182.485 0.986,182.806 0.902 C 183.127 0.818,182.785 0.752,182.047 0.756 C 181.309 0.759,181.046 0.828,181.464 0.908 M223.238 0.902 C 223.561 0.987,224.090 0.987,224.413 0.902 C 224.736 0.818,224.471 0.749,223.826 0.749 C 223.180 0.749,222.915 0.818,223.238 0.902 M178.607 1.238 C 178.930 1.322,179.459 1.322,179.782 1.238 C 180.105 1.154,179.841 1.085,179.195 1.085 C 178.549 1.085,178.284 1.154,178.607 1.238 M225.923 1.238 C 226.246 1.322,226.774 1.322,227.097 1.238 C 227.420 1.154,227.156 1.085,226.510 1.085 C 225.864 1.085,225.600 1.154,225.923 1.238 M243.121 4.554 C 244.044 4.811,244.950 5.008,245.134 4.992 C 245.702 4.943,242.828 4.078,242.114 4.083 C 241.745 4.085,242.198 4.297,243.121 4.554 M154.866 5.705 C 154.443 5.886,154.381 5.993,154.698 5.993 C 154.975 5.993,155.503 5.863,155.872 5.705 C 156.296 5.523,156.358 5.416,156.040 5.416 C 155.763 5.416,155.235 5.546,154.866 5.705 M252.685 7.215 C 253.331 7.464,254.086 7.667,254.362 7.667 C 254.639 7.667,254.337 7.464,253.691 7.215 C 253.045 6.966,252.290 6.762,252.013 6.762 C 251.737 6.762,252.039 6.966,252.685 7.215 M145.470 8.389 C 144.547 8.730,144.018 9.008,144.295 9.008 C 144.572 9.008,145.554 8.730,146.477 8.389 C 147.399 8.049,147.928 7.770,147.651 7.770 C 147.374 7.770,146.393 8.049,145.470 8.389 M259.396 9.339 C 259.673 9.510,260.277 9.751,260.738 9.875 C 261.321 10.031,261.424 10.004,261.074 9.788 C 260.797 9.617,260.193 9.376,259.732 9.253 C 259.148 9.097,259.046 9.123,259.396 9.339 M140.667 9.961 C 139.871 10.242,139.279 10.532,139.352 10.604 C 139.505 10.758,142.617 9.736,142.617 9.532 C 142.617 9.322,142.236 9.406,140.667 9.961 M263.087 10.682 C 263.364 10.853,263.968 11.094,264.430 11.217 C 265.013 11.373,265.115 11.347,264.765 11.130 C 264.488 10.959,263.884 10.718,263.423 10.595 C 262.840 10.439,262.737 10.465,263.087 10.682 M136.409 11.589 C 135.570 11.993,135.542 12.040,136.242 11.869 C 137.192 11.636,138.261 11.092,137.752 11.099 C 137.567 11.102,136.963 11.322,136.409 11.589 M271.141 13.926 C 271.602 14.190,272.131 14.406,272.315 14.406 C 272.500 14.406,272.273 14.190,271.812 13.926 C 271.351 13.662,270.822 13.447,270.638 13.447 C 270.453 13.447,270.680 13.662,271.141 13.926 M128.523 14.765 C 127.878 15.119,127.500 15.408,127.685 15.408 C 127.869 15.408,128.549 15.119,129.195 14.765 C 129.841 14.411,130.218 14.122,130.034 14.122 C 129.849 14.122,129.169 14.411,128.523 14.765 M273.826 15.101 C 274.471 15.454,275.151 15.744,275.336 15.744 C 275.520 15.744,275.143 15.454,274.497 15.101 C 273.851 14.747,273.171 14.458,272.987 14.458 C 272.802 14.458,273.180 14.747,273.826 15.101 M125.839 15.940 C 125.095 16.365,125.836 16.412,132.383 16.355 L 139.765 16.290 133.054 16.189 C 128.619 16.123,126.513 15.980,126.846 15.768 C 127.644 15.259,126.768 15.408,125.839 15.940 M145.703 16.022 C 147.677 16.081,150.999 16.081,153.085 16.022 C 155.172 15.964,153.557 15.915,149.497 15.915 C 145.436 15.915,143.729 15.963,145.703 16.022 M158.813 16.348 C 159.323 16.425,160.078 16.423,160.491 16.344 C 160.904 16.264,160.487 16.201,159.564 16.203 C 158.641 16.206,158.303 16.271,158.813 16.348 M278.188 17.114 C 279.203 17.650,280.185 18.089,280.369 18.089 C 280.554 18.089,279.874 17.650,278.859 17.114 C 277.844 16.578,276.862 16.139,276.678 16.139 C 276.493 16.139,277.173 16.578,278.188 17.114 M162.164 16.674 C 162.487 16.759,163.016 16.759,163.339 16.674 C 163.662 16.590,163.398 16.521,162.752 16.521 C 162.106 16.521,161.841 16.590,162.164 16.674 M175.000 19.128 C 175.369 19.286,175.898 19.416,176.174 19.416 C 176.492 19.416,176.430 19.309,176.007 19.128 C 175.638 18.969,175.109 18.839,174.832 18.839 C 174.515 18.839,174.577 18.946,175.000 19.128 M177.349 19.799 C 177.718 19.957,178.247 20.087,178.523 20.087 C 178.841 20.087,178.779 19.980,178.356 19.799 C 177.987 19.640,177.458 19.510,177.181 19.510 C 176.864 19.510,176.926 19.617,177.349 19.799 M284.899 20.294 C 284.899 20.386,285.956 20.994,287.248 21.644 C 288.540 22.295,289.597 22.752,289.597 22.659 C 289.597 22.567,288.540 21.959,287.248 21.309 C 285.956 20.658,284.899 20.201,284.899 20.294 M181.236 20.938 C 181.520 21.208,186.714 23.130,186.834 23.010 C 186.902 22.941,185.745 22.417,184.262 21.845 C 181.738 20.872,180.903 20.622,181.236 20.938 M289.933 22.973 C 289.933 23.065,290.537 23.449,291.275 23.826 C 292.013 24.202,292.617 24.435,292.617 24.342 C 292.617 24.250,292.013 23.867,291.275 23.490 C 290.537 23.113,289.933 22.881,289.933 22.973 M187.919 23.658 C 188.381 23.921,188.909 24.137,189.094 24.137 C 189.279 24.137,189.052 23.921,188.591 23.658 C 188.129 23.394,187.601 23.178,187.416 23.178 C 187.232 23.178,187.458 23.394,187.919 23.658 M190.296 24.625 C 190.638 24.939,195.302 27.172,195.302 27.022 C 195.302 26.834,190.753 24.497,190.389 24.497 C 190.261 24.497,190.220 24.554,190.296 24.625 M292.953 24.647 C 292.953 24.739,293.406 25.049,293.960 25.336 C 294.513 25.622,294.966 25.781,294.966 25.688 C 294.966 25.596,294.513 25.286,293.960 25.000 C 293.406 24.714,292.953 24.555,292.953 24.647 M195.638 27.332 C 195.638 27.424,196.091 27.734,196.644 28.020 C 197.198 28.306,197.651 28.465,197.651 28.373 C 197.651 28.281,197.198 27.971,196.644 27.685 C 196.091 27.398,195.638 27.239,195.638 27.332 M298.658 27.963 C 298.658 28.045,299.602 28.705,300.755 29.429 C 301.909 30.153,303.268 31.018,303.775 31.351 C 304.283 31.684,304.698 31.878,304.698 31.782 C 304.698 31.687,303.528 30.864,302.097 29.955 C 298.843 27.886,298.658 27.779,298.658 27.963 M199.832 29.762 C 200.017 29.954,201.300 30.866,202.685 31.790 C 212.460 38.318,222.569 48.490,229.283 58.557 C 231.156 61.364,232.375 62.972,231.701 61.745 C 227.924 54.864,218.140 43.622,210.247 37.090 C 206.755 34.201,198.528 28.412,199.832 29.762 M308.389 34.290 C 309.146 35.038,313.563 38.083,313.320 37.689 C 313.204 37.501,311.933 36.547,310.497 35.570 C 309.061 34.592,308.112 34.016,308.389 34.290 M313.758 38.007 C 313.758 38.098,315.201 39.258,316.964 40.583 C 334.383 53.676,351.234 71.314,362.508 88.255 C 364.648 91.470,365.983 93.263,365.257 91.946 C 360.290 82.936,345.295 65.032,333.958 54.575 C 326.731 47.909,313.758 37.268,313.758 38.007 M261.074 46.122 C 261.074 46.395,262.480 48.658,262.650 48.658 C 262.742 48.658,262.506 48.129,262.125 47.483 C 261.369 46.202,261.479 46.084,262.752 46.812 C 263.213 47.076,263.742 47.291,263.926 47.289 C 264.399 47.286,262.004 46.004,261.493 45.987 C 261.263 45.979,261.074 46.040,261.074 46.122 M265.800 48.115 C 266.141 48.429,270.805 50.662,270.805 50.512 C 270.805 50.324,266.257 47.987,265.892 47.987 C 265.764 47.987,265.723 48.044,265.800 48.115 M263.591 50.671 C 264.058 51.594,264.516 52.349,264.609 52.349 C 264.701 52.349,264.394 51.594,263.926 50.671 C 263.459 49.748,263.000 48.993,262.908 48.993 C 262.816 48.993,263.123 49.748,263.591 50.671 M109.659 50.248 C 110.634 50.316,112.144 50.315,113.015 50.246 C 113.885 50.177,113.087 50.122,111.242 50.123 C 109.396 50.123,108.684 50.180,109.659 50.248 M117.534 50.247 C 118.410 50.316,119.845 50.316,120.721 50.247 C 121.598 50.178,120.881 50.121,119.128 50.121 C 117.374 50.121,116.657 50.178,117.534 50.247 M104.950 50.572 C 105.365 50.652,106.044 50.652,106.460 50.572 C 106.875 50.492,106.535 50.427,105.705 50.427 C 104.874 50.427,104.534 50.492,104.950 50.572 M123.742 50.572 C 124.157 50.652,124.836 50.652,125.252 50.572 C 125.667 50.492,125.327 50.427,124.497 50.427 C 123.666 50.427,123.326 50.492,123.742 50.572 M102.433 50.902 C 102.756 50.987,103.284 50.987,103.607 50.902 C 103.930 50.818,103.666 50.749,103.020 50.749 C 102.374 50.749,102.110 50.818,102.433 50.902 M272.483 51.496 C 272.483 51.589,273.087 51.972,273.826 52.349 C 274.564 52.726,275.168 52.958,275.168 52.866 C 275.168 52.774,274.564 52.390,273.826 52.013 C 273.087 51.637,272.483 51.404,272.483 51.496 M95.302 52.013 C 94.638 52.226,94.603 52.282,95.134 52.282 C 95.503 52.282,96.183 52.161,96.644 52.013 C 97.309 51.801,97.344 51.745,96.812 51.745 C 96.443 51.745,95.763 51.866,95.302 52.013 M136.242 52.685 C 137.389 53.052,138.271 53.052,137.416 52.685 C 137.047 52.526,136.443 52.401,136.074 52.406 C 135.534 52.414,135.567 52.469,136.242 52.685 M275.513 53.111 C 275.611 53.226,277.650 54.502,280.044 55.946 C 282.437 57.390,284.849 58.849,285.403 59.187 C 286.174 59.658,286.252 59.671,285.738 59.240 C 284.433 58.147,274.972 52.476,275.513 53.111 M88.758 53.691 C 88.335 53.873,88.273 53.980,88.591 53.980 C 88.867 53.980,89.396 53.850,89.765 53.691 C 90.188 53.509,90.250 53.403,89.933 53.403 C 89.656 53.403,89.128 53.533,88.758 53.691 M142.255 54.386 C 143.255 54.741,144.132 54.973,144.203 54.902 C 144.359 54.746,141.303 53.681,140.796 53.716 C 140.598 53.729,141.255 54.031,142.255 54.386 M144.966 55.313 C 145.243 55.484,145.847 55.724,146.309 55.848 C 146.892 56.004,146.994 55.977,146.644 55.761 C 146.367 55.590,145.763 55.349,145.302 55.226 C 144.719 55.070,144.617 55.096,144.966 55.313 M148.993 57.047 C 149.639 57.401,150.319 57.690,150.503 57.690 C 150.688 57.690,150.310 57.401,149.664 57.047 C 149.018 56.693,148.339 56.404,148.154 56.404 C 147.970 56.404,148.347 56.693,148.993 57.047 M267.144 57.550 C 267.144 57.735,267.508 58.565,267.953 59.396 C 268.398 60.227,268.762 60.755,268.762 60.570 C 268.762 60.386,268.398 59.555,267.953 58.725 C 267.508 57.894,267.144 57.366,267.144 57.550 M75.755 58.746 C 74.694 59.294,73.826 59.818,73.826 59.910 C 73.826 60.059,77.819 58.158,78.160 57.846 C 78.599 57.444,77.431 57.881,75.755 58.746 M152.349 58.543 C 152.349 58.636,152.953 59.019,153.691 59.396 C 154.430 59.773,155.034 60.005,155.034 59.913 C 155.034 59.821,154.430 59.437,153.691 59.060 C 152.953 58.684,152.349 58.451,152.349 58.543 M71.560 61.084 C 70.591 61.639,69.799 62.173,69.799 62.269 C 69.799 62.453,72.752 60.834,73.305 60.347 C 73.893 59.830,73.335 60.066,71.560 61.084 M268.816 61.242 C 268.816 61.426,269.032 61.955,269.295 62.416 C 269.559 62.878,269.775 63.104,269.775 62.919 C 269.775 62.735,269.559 62.206,269.295 61.745 C 269.032 61.284,268.816 61.057,268.816 61.242 M288.591 61.186 C 288.591 61.278,289.836 62.221,291.359 63.282 C 308.301 75.085,324.305 91.259,334.831 107.215 C 337.777 111.681,338.978 113.297,337.574 110.906 C 330.929 99.588,318.259 84.970,305.867 74.325 C 299.512 68.867,288.591 60.561,288.591 61.186 M65.588 64.910 C 52.685 73.664,36.969 90.376,30.380 102.349 C 29.678 103.624,30.954 101.924,32.897 98.993 C 41.920 85.388,53.504 73.417,65.436 65.365 C 68.989 62.968,69.736 62.416,69.430 62.416 C 69.338 62.416,67.609 63.538,65.588 64.910 M159.060 62.517 C 159.060 62.595,160.155 63.498,161.493 64.524 C 164.304 66.678,168.698 71.117,170.786 73.909 C 172.527 76.238,172.968 76.474,171.413 74.245 C 169.343 71.276,159.060 61.513,159.060 62.517 M233.389 65.101 C 233.676 65.654,233.985 66.107,234.078 66.107 C 234.170 66.107,234.011 65.654,233.725 65.101 C 233.439 64.547,233.129 64.094,233.036 64.094 C 232.944 64.094,233.103 64.547,233.389 65.101 M271.333 67.450 C 271.457 67.911,271.698 68.515,271.869 68.792 C 272.085 69.142,272.111 69.039,271.955 68.456 C 271.832 67.995,271.591 67.391,271.420 67.114 C 271.204 66.764,271.177 66.867,271.333 67.450 M235.809 69.619 C 236.490 70.997,237.103 72.069,237.170 72.002 C 237.319 71.853,234.954 67.114,234.730 67.114 C 234.642 67.114,235.127 68.241,235.809 69.619 M272.677 71.225 C 273.322 73.255,274.115 75.297,274.137 74.981 C 274.170 74.497,272.796 70.470,272.598 70.470 C 272.510 70.470,272.546 70.810,272.677 71.225 M237.608 73.322 C 237.608 73.507,237.823 74.035,238.087 74.497 C 238.351 74.958,238.567 75.185,238.567 75.000 C 238.567 74.815,238.351 74.287,238.087 73.826 C 237.823 73.364,237.608 73.138,237.608 73.322 M274.544 76.846 C 274.544 77.122,274.674 77.651,274.832 78.020 C 275.014 78.443,275.121 78.505,275.121 78.188 C 275.121 77.911,274.991 77.383,274.832 77.013 C 274.650 76.590,274.544 76.528,274.544 76.846 M175.406 81.364 C 176.088 82.742,176.700 83.814,176.767 83.747 C 176.917 83.598,174.552 78.859,174.327 78.859 C 174.239 78.859,174.724 79.986,175.406 81.364 M240.125 79.530 C 240.249 79.992,240.490 80.596,240.661 80.872 C 240.877 81.222,240.903 81.120,240.747 80.537 C 240.624 80.076,240.383 79.471,240.212 79.195 C 239.996 78.845,239.969 78.947,240.125 79.530 M275.215 79.195 C 275.215 79.471,275.345 80.000,275.503 80.369 C 275.685 80.792,275.792 80.854,275.792 80.537 C 275.792 80.260,275.662 79.732,275.503 79.362 C 275.322 78.939,275.215 78.877,275.215 79.195 M109.983 83.800 C 110.583 83.874,111.565 83.874,112.164 83.800 C 112.764 83.725,112.273 83.664,111.074 83.664 C 109.874 83.664,109.383 83.725,109.983 83.800 M118.540 83.797 C 119.048 83.874,119.878 83.874,120.386 83.797 C 120.893 83.721,120.478 83.658,119.463 83.658 C 118.448 83.658,118.033 83.721,118.540 83.797 M106.795 84.124 C 107.118 84.208,107.647 84.208,107.970 84.124 C 108.293 84.040,108.029 83.970,107.383 83.970 C 106.737 83.970,106.472 84.040,106.795 84.124 M122.232 84.124 C 122.555 84.208,123.083 84.208,123.406 84.124 C 123.729 84.040,123.465 83.970,122.819 83.970 C 122.173 83.970,121.909 84.040,122.232 84.124 M176.869 84.396 C 176.869 84.581,177.085 85.109,177.349 85.570 C 177.613 86.032,177.829 86.258,177.829 86.074 C 177.829 85.889,177.613 85.361,177.349 84.899 C 177.085 84.438,176.869 84.211,176.869 84.396 M126.846 84.899 C 127.307 85.047,127.987 85.168,128.356 85.168 C 128.887 85.168,128.852 85.112,128.188 84.899 C 127.727 84.752,127.047 84.631,126.678 84.631 C 126.146 84.631,126.181 84.687,126.846 84.899 M241.993 84.899 C 241.993 85.176,242.123 85.705,242.282 86.074 C 242.464 86.497,242.570 86.559,242.570 86.242 C 242.570 85.965,242.440 85.436,242.282 85.067 C 242.100 84.644,241.993 84.582,241.993 84.899 M99.832 85.393 C 98.030 85.987,98.739 86.010,100.839 85.426 C 101.762 85.169,102.215 84.957,101.846 84.955 C 101.477 84.953,100.570 85.150,99.832 85.393 M131.879 86.185 C 132.156 86.356,132.760 86.597,133.221 86.720 C 133.805 86.876,133.907 86.850,133.557 86.634 C 133.280 86.463,132.676 86.222,132.215 86.098 C 131.632 85.942,131.529 85.969,131.879 86.185 M95.470 86.733 C 94.174 87.326,94.777 87.335,96.309 86.745 C 96.955 86.496,97.257 86.288,96.980 86.282 C 96.703 86.277,96.023 86.479,95.470 86.733 M137.081 88.511 C 139.218 89.627,140.803 90.779,142.505 92.452 C 143.828 93.753,144.775 94.565,144.611 94.257 C 143.610 92.388,135.878 86.864,134.345 86.924 C 134.188 86.930,135.419 87.644,137.081 88.511 M90.520 88.780 C 89.643 89.237,88.926 89.685,88.926 89.777 C 88.926 89.927,92.248 88.358,92.589 88.047 C 93.005 87.668,91.913 88.055,90.520 88.780 M85.356 91.891 C 77.020 97.380,68.019 106.331,62.451 114.667 C 60.516 117.564,61.022 116.996,64.036 112.886 C 70.183 104.505,77.574 97.348,85.403 92.197 C 88.576 90.108,88.817 89.933,88.515 89.933 C 88.413 89.933,86.991 90.814,85.356 91.891 M243.681 90.940 C 243.698 91.812,244.227 93.244,244.238 92.450 C 244.244 92.081,244.118 91.477,243.960 91.107 C 243.783 90.696,243.675 90.631,243.681 90.940 M179.583 91.107 C 179.582 91.292,179.785 91.971,180.034 92.617 C 180.282 93.263,180.491 93.565,180.496 93.289 C 180.502 93.012,180.299 92.332,180.046 91.779 C 179.792 91.225,179.584 90.923,179.583 91.107 M365.844 93.289 C 366.112 93.750,366.749 94.845,367.258 95.721 C 367.768 96.598,368.254 97.315,368.340 97.315 C 368.567 97.315,366.717 94.086,365.984 93.204 L 365.357 92.450 365.844 93.289 M145.535 96.472 C 145.842 97.116,146.153 97.583,146.226 97.510 C 146.379 97.357,145.361 95.302,145.131 95.302 C 145.046 95.302,145.228 95.829,145.535 96.472 M368.960 98.658 C 369.246 99.211,369.556 99.664,369.648 99.664 C 369.740 99.664,369.582 99.211,369.295 98.658 C 369.009 98.104,368.699 97.651,368.607 97.651 C 368.515 97.651,368.673 98.104,368.960 98.658 M146.333 98.154 C 146.333 98.339,146.548 98.867,146.812 99.329 C 147.076 99.790,147.292 100.017,147.292 99.832 C 147.292 99.648,147.076 99.119,146.812 98.658 C 146.548 98.196,146.333 97.970,146.333 98.154 M372.388 105.186 C 373.811 108.038,375.027 110.320,375.091 110.255 C 375.239 110.108,370.187 100.000,369.966 100.000 C 369.875 100.000,370.965 102.334,372.388 105.186 M279.944 102.349 C 279.944 102.995,280.013 103.259,280.097 102.936 C 280.181 102.613,280.181 102.085,280.097 101.762 C 280.013 101.439,279.944 101.703,279.944 102.349 M29.658 103.440 C 28.503 105.399,28.428 105.567,29.016 104.866 C 29.698 104.054,30.285 103.020,30.065 103.020 C 29.977 103.020,29.794 103.209,29.658 103.440 M148.375 103.188 C 148.374 103.372,148.577 104.052,148.826 104.698 C 149.074 105.344,149.282 105.646,149.288 105.369 C 149.294 105.092,149.091 104.413,148.838 103.859 C 148.584 103.305,148.376 103.003,148.375 103.188 M280.286 104.866 C 280.290 105.604,280.358 105.867,280.439 105.449 C 280.519 105.032,280.516 104.428,280.432 104.107 C 280.348 103.786,280.282 104.128,280.286 104.866 M27.427 107.131 C 26.248 109.170,25.705 110.288,26.083 109.899 C 26.540 109.430,28.608 105.705,28.412 105.705 C 28.324 105.705,27.881 106.346,27.427 107.131 M246.722 107.047 C 246.722 107.693,246.791 107.957,246.876 107.634 C 246.960 107.311,246.960 106.783,246.876 106.460 C 246.791 106.137,246.722 106.401,246.722 107.047 M280.628 108.054 C 280.628 108.884,280.694 109.224,280.774 108.809 C 280.854 108.393,280.854 107.714,280.774 107.299 C 280.694 106.883,280.628 107.223,280.628 108.054 M183.970 109.732 C 183.970 110.378,184.040 110.642,184.124 110.319 C 184.208 109.996,184.208 109.467,184.124 109.144 C 184.040 108.821,183.970 109.086,183.970 109.732 M247.064 109.899 C 247.068 110.638,247.137 110.900,247.217 110.483 C 247.297 110.065,247.294 109.461,247.210 109.140 C 247.126 108.820,247.061 109.161,247.064 109.899 M280.968 111.577 C 280.971 112.500,281.036 112.838,281.113 112.328 C 281.190 111.818,281.188 111.062,281.109 110.650 C 281.029 110.237,280.966 110.654,280.968 111.577 M24.832 111.745 C 24.456 112.483,24.223 113.087,24.315 113.087 C 24.408 113.087,24.791 112.483,25.168 111.745 C 25.544 111.007,25.777 110.403,25.685 110.403 C 25.592 110.403,25.209 111.007,24.832 111.745 M375.527 111.577 C 375.527 111.762,375.743 112.290,376.007 112.752 C 376.270 113.213,376.486 113.440,376.486 113.255 C 376.486 113.070,376.270 112.542,376.007 112.081 C 375.743 111.619,375.527 111.393,375.527 111.577 M150.749 112.752 C 150.749 113.398,150.818 113.662,150.902 113.339 C 150.987 113.016,150.987 112.487,150.902 112.164 C 150.818 111.841,150.749 112.106,150.749 112.752 M184.345 114.430 C 184.345 115.998,184.403 116.640,184.474 115.856 C 184.545 115.071,184.545 113.788,184.474 113.003 C 184.403 112.219,184.345 112.861,184.345 114.430 M247.407 113.087 C 247.407 113.918,247.472 114.258,247.552 113.842 C 247.632 113.427,247.632 112.747,247.552 112.332 C 247.472 111.917,247.407 112.257,247.407 113.087 M281.315 116.107 C 281.315 117.307,281.376 117.798,281.451 117.198 C 281.525 116.598,281.525 115.617,281.451 115.017 C 281.376 114.417,281.315 114.908,281.315 116.107 M339.933 115.436 C 340.310 116.174,340.693 116.779,340.785 116.779 C 340.878 116.779,340.645 116.174,340.268 115.436 C 339.892 114.698,339.508 114.094,339.416 114.094 C 339.324 114.094,339.556 114.698,339.933 115.436 M151.129 117.617 C 151.130 119.463,151.186 120.175,151.254 119.200 C 151.322 118.225,151.322 116.715,151.253 115.844 C 151.184 114.974,151.128 115.772,151.129 117.617 M22.131 116.811 C 21.745 117.567,21.487 118.243,21.558 118.314 C 21.628 118.384,22.014 117.765,22.416 116.939 C 23.330 115.057,23.083 114.945,22.131 116.811 M247.755 117.282 C 247.757 118.389,247.820 118.802,247.894 118.199 C 247.969 117.596,247.967 116.690,247.891 116.185 C 247.814 115.681,247.753 116.174,247.755 117.282 M342.689 120.624 C 343.649 122.554,344.488 124.080,344.553 124.015 C 344.702 123.866,341.329 117.114,341.106 117.114 C 341.017 117.114,341.729 118.693,342.689 120.624 M59.267 119.295 C 58.969 119.757,58.480 120.549,58.182 121.057 L 57.638 121.980 58.314 121.163 C 59.111 120.198,60.169 118.456,59.957 118.456 C 59.875 118.456,59.565 118.834,59.267 119.295 M184.343 121.309 C 184.344 122.785,184.403 123.348,184.474 122.558 C 184.545 121.769,184.544 120.561,184.472 119.874 C 184.400 119.186,184.342 119.832,184.343 121.309 M281.665 122.483 C 281.665 124.237,281.721 124.954,281.790 124.077 C 281.859 123.201,281.859 121.766,281.790 120.889 C 281.721 120.013,281.665 120.730,281.665 122.483 M379.051 120.470 C 379.175 120.931,379.416 121.535,379.587 121.812 C 379.803 122.162,379.829 122.060,379.673 121.477 C 379.550 121.015,379.309 120.411,379.138 120.134 C 378.922 119.784,378.895 119.887,379.051 120.470 M248.106 122.987 C 248.105 124.648,248.161 125.369,248.232 124.591 C 248.302 123.812,248.303 122.453,248.234 121.571 C 248.164 120.688,248.107 121.326,248.106 122.987 M19.526 122.332 C 18.515 124.413,18.628 124.704,19.670 122.702 C 20.135 121.807,20.459 121.018,20.388 120.948 C 20.318 120.878,19.930 121.500,19.526 122.332 M57.282 122.399 C 57.206 122.538,56.719 123.406,56.201 124.329 C 55.683 125.252,55.414 125.856,55.605 125.671 C 56.090 125.200,57.821 122.148,57.602 122.148 C 57.503 122.148,57.359 122.261,57.282 122.399 M379.918 122.819 C 379.918 123.096,380.196 124.077,380.537 125.000 C 380.877 125.923,381.156 126.451,381.156 126.174 C 381.156 125.898,380.877 124.916,380.537 123.993 C 380.196 123.070,379.918 122.542,379.918 122.819 M18.175 125.350 C 17.613 126.584,17.720 126.847,18.328 125.725 C 18.612 125.201,18.782 124.710,18.705 124.633 C 18.628 124.557,18.390 124.879,18.175 125.350 M344.655 124.664 C 344.655 124.849,344.870 125.378,345.134 125.839 C 345.398 126.300,345.614 126.527,345.614 126.342 C 345.614 126.158,345.398 125.629,345.134 125.168 C 344.870 124.706,344.655 124.480,344.655 124.664 M183.970 125.839 C 183.970 126.485,184.040 126.749,184.124 126.426 C 184.208 126.103,184.208 125.575,184.124 125.252 C 184.040 124.929,183.970 125.193,183.970 125.839 M54.027 128.188 C 53.468 129.295,53.086 130.201,53.178 130.201 C 53.271 130.201,53.803 129.295,54.362 128.188 C 54.921 127.081,55.303 126.174,55.211 126.174 C 55.119 126.174,54.586 127.081,54.027 128.188 M17.169 127.699 C 16.606 128.933,16.714 129.196,17.322 128.074 C 17.605 127.550,17.775 127.059,17.698 126.982 C 17.621 126.906,17.383 127.228,17.169 127.699 M345.676 127.013 C 345.682 127.198,345.978 127.953,346.333 128.691 C 346.688 129.430,346.884 129.656,346.770 129.195 C 346.533 128.244,345.658 126.500,345.676 127.013 M381.753 128.859 C 381.870 129.505,382.098 130.336,382.260 130.705 C 382.462 131.165,382.487 131.008,382.341 130.201 C 382.224 129.555,381.996 128.725,381.834 128.356 C 381.632 127.895,381.607 128.053,381.753 128.859 M248.469 138.255 C 248.469 143.331,248.516 145.407,248.573 142.869 C 248.630 140.331,248.630 136.179,248.573 133.641 C 248.516 131.103,248.469 133.180,248.469 138.255 M282.020 136.074 C 282.020 139.765,282.069 141.321,282.129 139.531 C 282.189 137.742,282.190 134.721,282.130 132.820 C 282.070 130.918,282.020 132.383,282.020 136.074 M147.552 132.056 C 147.057 133.066,146.723 133.893,146.810 133.893 C 147.036 133.893,148.729 130.496,148.578 130.345 C 148.509 130.276,148.047 131.046,147.552 132.056 M347.172 130.872 C 347.296 131.334,347.537 131.938,347.708 132.215 C 347.924 132.565,347.950 132.462,347.794 131.879 C 347.671 131.418,347.430 130.814,347.259 130.537 C 347.043 130.187,347.016 130.289,347.172 130.872 M14.802 133.594 C 14.596 134.187,14.485 134.731,14.557 134.803 C 14.629 134.875,14.857 134.448,15.063 133.855 C 15.270 133.262,15.381 132.718,15.309 132.647 C 15.237 132.575,15.009 133.001,14.802 133.594 M50.233 135.755 C 49.001 138.267,49.115 138.565,50.374 136.124 C 50.931 135.044,51.331 134.105,51.262 134.036 C 51.193 133.968,50.730 134.741,50.233 135.755 M144.748 136.661 C 142.496 139.888,139.271 143.320,135.665 146.327 C 132.489 148.975,131.174 150.175,132.383 149.321 C 137.205 145.914,144.425 138.418,146.350 134.823 C 147.001 133.605,146.396 134.300,144.748 136.661 M13.796 136.279 C 13.589 136.872,13.479 137.416,13.550 137.488 C 13.622 137.559,13.850 137.133,14.057 136.540 C 14.263 135.947,14.374 135.403,14.302 135.331 C 14.230 135.259,14.002 135.686,13.796 136.279 M349.040 136.242 C 349.040 136.518,349.170 137.047,349.329 137.416 C 349.511 137.839,349.617 137.901,349.617 137.584 C 349.617 137.307,349.487 136.779,349.329 136.409 C 349.147 135.986,349.040 135.924,349.040 136.242 M181.112 138.327 C 180.807 139.283,180.612 140.120,180.680 140.188 C 180.748 140.256,181.061 139.537,181.376 138.591 C 181.690 137.644,181.885 136.806,181.808 136.729 C 181.731 136.652,181.418 137.371,181.112 138.327 M48.712 139.108 C 48.150 140.342,48.257 140.606,48.865 139.484 C 49.149 138.960,49.319 138.468,49.242 138.392 C 49.165 138.315,48.927 138.637,48.712 139.108 M11.947 141.507 C 11.467 142.949,11.085 144.280,11.099 144.464 C 11.113 144.648,11.565 143.526,12.103 141.971 C 12.641 140.416,13.022 139.085,12.951 139.014 C 12.879 138.942,12.428 140.064,11.947 141.507 M179.754 142.002 C 179.450 142.775,179.257 143.463,179.324 143.530 C 179.391 143.597,179.698 143.023,180.006 142.254 C 180.313 141.485,180.507 140.798,180.435 140.726 C 180.364 140.655,180.058 141.229,179.754 142.002 M46.854 143.617 C 46.097 145.510,46.214 145.791,47.011 143.995 C 47.371 143.183,47.605 142.460,47.532 142.387 C 47.459 142.314,47.154 142.867,46.854 143.617 M384.977 144.631 C 384.977 145.277,385.046 145.541,385.131 145.218 C 385.215 144.895,385.215 144.367,385.131 144.044 C 385.046 143.721,384.977 143.985,384.977 144.631 M177.588 146.825 C 176.813 148.387,176.252 149.664,176.341 149.664 C 176.565 149.664,179.266 144.255,179.117 144.105 C 179.050 144.039,178.362 145.263,177.588 146.825 M385.326 147.651 C 385.326 148.482,385.392 148.821,385.472 148.406 C 385.552 147.991,385.552 147.311,385.472 146.896 C 385.392 146.481,385.326 146.820,385.326 147.651 M9.923 147.843 C 9.800 148.335,9.764 148.802,9.843 148.881 C 9.922 148.960,10.088 148.622,10.211 148.130 C 10.334 147.639,10.371 147.172,10.292 147.092 C 10.212 147.013,10.047 147.351,9.923 147.843 M351.756 148.993 C 351.756 149.639,351.825 149.904,351.909 149.581 C 351.994 149.258,351.994 148.729,351.909 148.406 C 351.825 148.083,351.756 148.347,351.756 148.993 M43.827 151.909 C 43.162 153.905,42.629 155.689,42.643 155.873 C 42.657 156.057,43.259 154.482,43.981 152.373 C 44.703 150.263,45.236 148.479,45.165 148.409 C 45.094 148.338,44.492 149.913,43.827 151.909 M9.252 150.192 C 9.129 150.684,9.092 151.151,9.172 151.230 C 9.251 151.309,9.416 150.971,9.540 150.479 C 9.663 149.988,9.699 149.521,9.620 149.441 C 9.541 149.362,9.376 149.700,9.252 150.192 M130.369 150.533 L 129.362 151.398 130.453 150.676 C 131.053 150.279,131.544 149.889,131.544 149.809 C 131.544 149.558,131.402 149.646,130.369 150.533 M281.644 151.342 C 281.644 152.357,281.707 152.773,281.784 152.265 C 281.861 151.758,281.861 150.927,281.784 150.419 C 281.707 149.912,281.644 150.327,281.644 151.342 M175.463 150.755 C 175.243 151.170,174.844 151.888,174.577 152.349 C 174.110 153.154,174.113 153.161,174.655 152.517 C 175.323 151.721,176.262 150.000,176.027 150.000 C 175.937 150.000,175.683 150.340,175.463 150.755 M385.696 153.523 C 385.697 155.554,385.752 156.341,385.819 155.273 C 385.886 154.205,385.885 152.544,385.817 151.582 C 385.750 150.619,385.695 151.493,385.696 153.523 M352.117 152.517 C 352.119 153.624,352.182 154.037,352.257 153.434 C 352.331 152.830,352.330 151.924,352.253 151.420 C 352.177 150.916,352.116 151.409,352.117 152.517 M8.581 152.541 C 8.458 153.033,8.421 153.500,8.500 153.579 C 8.580 153.658,8.745 153.320,8.869 152.828 C 8.992 152.337,9.028 151.870,8.949 151.790 C 8.870 151.711,8.704 152.049,8.581 152.541 M125.731 153.514 C 123.316 155.050,122.427 155.752,123.815 155.028 C 125.129 154.342,128.188 152.344,128.188 152.171 C 128.188 151.947,128.245 151.915,125.731 153.514 M120.385 156.671 C 119.139 157.371,118.006 158.070,117.868 158.224 C 117.554 158.576,122.199 156.090,122.634 155.674 C 123.177 155.155,122.732 155.352,120.385 156.671 M171.812 156.376 C 171.418 156.930,171.171 157.383,171.263 157.383 C 171.355 157.383,171.753 156.930,172.148 156.376 C 172.542 155.822,172.789 155.369,172.697 155.369 C 172.604 155.369,172.206 155.822,171.812 156.376 M248.441 158.221 C 248.440 159.883,248.497 160.604,248.567 159.826 C 248.638 159.047,248.639 157.688,248.569 156.805 C 248.500 155.923,248.442 156.560,248.441 158.221 M281.989 158.221 C 281.991 159.513,282.051 160.001,282.124 159.305 C 282.197 158.608,282.196 157.551,282.121 156.956 C 282.047 156.360,281.988 156.930,281.989 158.221 M168.937 160.151 C 166.182 163.598,159.486 170.179,155.527 173.329 C 153.675 174.802,151.637 176.432,150.996 176.952 L 149.832 177.898 151.007 177.122 C 156.673 173.382,172.839 157.718,171.033 157.718 C 170.949 157.718,170.006 158.813,168.937 160.151 M385.688 161.074 C 385.688 162.643,385.746 163.284,385.816 162.500 C 385.887 161.716,385.887 160.432,385.816 159.648 C 385.746 158.863,385.688 159.505,385.688 161.074 M115.017 159.586 C 114.140 160.042,113.423 160.491,113.423 160.583 C 113.423 160.674,114.178 160.367,115.101 159.899 C 116.023 159.432,116.779 158.976,116.779 158.887 C 116.779 158.665,116.809 158.653,115.017 159.586 M352.121 161.074 C 352.121 162.273,352.182 162.764,352.256 162.164 C 352.331 161.565,352.331 160.583,352.256 159.983 C 352.182 159.383,352.121 159.874,352.121 161.074 M41.131 160.594 C 41.008 161.086,40.972 161.553,41.051 161.632 C 41.130 161.712,41.296 161.374,41.419 160.882 C 41.542 160.390,41.579 159.923,41.500 159.844 C 41.420 159.765,41.255 160.103,41.131 160.594 M110.990 161.766 C 109.929 162.314,109.060 162.838,109.060 162.930 C 109.060 163.022,109.966 162.640,111.074 162.081 C 112.181 161.522,113.087 160.991,113.087 160.901 C 113.087 160.677,113.149 160.652,110.990 161.766 M282.306 162.416 C 282.306 163.247,282.372 163.586,282.452 163.171 C 282.532 162.756,282.532 162.076,282.452 161.661 C 282.372 161.246,282.306 161.586,282.306 162.416 M248.754 163.591 C 248.756 164.513,248.821 164.851,248.899 164.341 C 248.976 163.831,248.974 163.076,248.894 162.663 C 248.814 162.250,248.751 162.668,248.754 163.591 M107.299 163.781 C 106.607 164.147,106.040 164.521,106.040 164.612 C 106.040 164.704,106.644 164.471,107.383 164.094 C 108.121 163.717,108.725 163.337,108.725 163.248 C 108.725 163.029,108.722 163.030,107.299 163.781 M351.756 165.101 C 351.756 165.747,351.825 166.011,351.909 165.688 C 351.994 165.365,351.994 164.836,351.909 164.513 C 351.825 164.190,351.756 164.455,351.756 165.101 M39.597 166.443 C 39.371 167.386,39.253 168.224,39.334 168.305 C 39.416 168.387,39.662 167.677,39.881 166.727 C 40.100 165.777,40.219 164.939,40.144 164.865 C 40.070 164.790,39.823 165.500,39.597 166.443 M104.279 165.459 C 103.586 165.824,103.020 166.198,103.020 166.290 C 103.020 166.382,103.624 166.148,104.362 165.772 C 105.101 165.395,105.705 165.015,105.705 164.926 C 105.705 164.707,105.702 164.707,104.279 165.459 M385.326 166.107 C 385.326 166.938,385.392 167.278,385.472 166.862 C 385.552 166.447,385.552 165.768,385.472 165.352 C 385.392 164.937,385.326 165.277,385.326 166.107 M249.078 166.946 C 249.082 167.685,249.150 167.947,249.231 167.530 C 249.311 167.112,249.308 166.508,249.224 166.187 C 249.140 165.867,249.074 166.208,249.078 166.946 M100.755 167.485 C 99.786 168.050,98.993 168.589,98.993 168.684 C 98.993 168.870,101.978 167.211,102.500 166.734 C 103.069 166.215,102.552 166.437,100.755 167.485 M384.977 169.128 C 384.977 169.773,385.046 170.038,385.131 169.715 C 385.215 169.392,385.215 168.863,385.131 168.540 C 385.046 168.217,384.977 168.482,384.977 169.128 M96.225 170.155 C 94.979 170.902,93.960 171.598,93.960 171.701 C 93.960 171.805,94.299 171.670,94.715 171.403 C 95.130 171.135,96.187 170.500,97.064 169.990 C 98.414 169.205,98.944 168.786,98.574 168.794 C 98.528 168.795,97.471 169.407,96.225 170.155 M249.407 169.799 C 249.407 170.445,249.476 170.709,249.560 170.386 C 249.645 170.063,249.645 169.534,249.560 169.211 C 249.476 168.888,249.407 169.153,249.407 169.799 M89.426 174.373 C 87.047 175.949,85.572 177.151,87.416 176.011 C 90.475 174.119,92.285 172.819,91.859 172.819 C 91.811 172.819,90.716 173.518,89.426 174.373 M349.521 176.031 C 349.397 176.522,349.361 176.990,349.440 177.069 C 349.519 177.148,349.685 176.810,349.808 176.318 C 349.932 175.827,349.968 175.359,349.889 175.280 C 349.810 175.201,349.644 175.539,349.521 176.031 M284.924 176.031 C 284.889 176.538,285.954 179.594,286.111 179.438 C 286.181 179.367,285.949 178.490,285.594 177.490 C 285.239 176.490,284.937 175.833,284.924 176.031 M81.460 179.718 C 80.029 180.733,78.859 181.642,78.859 181.738 C 78.859 181.925,83.054 179.052,83.881 178.300 C 84.852 177.415,84.015 177.906,81.460 179.718 M145.507 180.556 C 141.391 183.287,140.099 184.270,142.450 182.880 C 144.554 181.636,149.664 178.188,149.664 178.011 C 149.664 177.786,149.877 177.656,145.507 180.556 M3.098 179.195 C 3.098 179.841,3.167 180.105,3.251 179.782 C 3.336 179.459,3.336 178.930,3.251 178.607 C 3.167 178.284,3.098 178.549,3.098 179.195 M348.210 179.922 C 347.907 180.695,347.713 181.382,347.780 181.449 C 347.848 181.516,348.154 180.942,348.462 180.173 C 348.770 179.404,348.963 178.717,348.892 178.646 C 348.821 178.575,348.514 179.149,348.210 179.922 M251.399 180.369 C 251.394 180.738,251.519 181.342,251.678 181.711 C 252.045 182.567,252.045 181.684,251.678 180.537 C 251.462 179.863,251.407 179.830,251.399 180.369 M2.762 181.544 C 2.762 182.190,2.831 182.454,2.916 182.131 C 3.000 181.808,3.000 181.279,2.916 180.956 C 2.831 180.633,2.762 180.898,2.762 181.544 M286.913 181.667 C 286.913 182.030,288.580 185.235,288.770 185.235 C 288.862 185.235,288.539 184.442,288.053 183.473 C 287.116 181.610,286.913 181.287,286.913 181.667 M74.746 184.688 C 62.427 194.263,50.247 206.762,42.951 217.316 C 42.007 218.681,41.307 219.799,41.395 219.799 C 41.483 219.799,42.407 218.583,43.448 217.096 C 51.679 205.351,61.818 195.154,77.536 182.818 C 78.171 182.319,78.616 181.904,78.523 181.897 C 78.431 181.889,76.731 183.145,74.746 184.688 M346.545 183.734 C 346.050 184.744,345.716 185.570,345.803 185.570 C 346.029 185.570,347.722 182.174,347.571 182.023 C 347.502 181.954,347.041 182.724,346.545 183.734 M2.427 184.228 C 2.427 184.874,2.496 185.138,2.580 184.815 C 2.665 184.492,2.665 183.964,2.580 183.641 C 2.496 183.318,2.427 183.582,2.427 184.228 M138.845 184.683 C 136.241 186.177,135.902 186.637,138.423 185.257 C 140.257 184.252,141.309 183.541,140.923 183.567 C 140.840 183.573,139.905 184.075,138.845 184.683 M252.396 184.228 C 252.396 184.505,252.526 185.034,252.685 185.403 C 252.866 185.826,252.973 185.888,252.973 185.570 C 252.973 185.294,252.843 184.765,252.685 184.396 C 252.503 183.973,252.396 183.911,252.396 184.228 M381.735 184.756 C 381.612 185.247,381.576 185.714,381.655 185.793 C 381.734 185.873,381.900 185.535,382.023 185.043 C 382.146 184.551,382.183 184.084,382.104 184.005 C 382.025 183.926,381.859 184.264,381.735 184.756 M289.097 185.906 C 290.654 188.821,295.752 194.281,298.279 195.740 C 299.810 196.625,299.563 196.217,297.903 195.120 C 295.723 193.680,292.708 190.677,291.010 188.255 C 289.430 186.000,288.608 184.992,289.097 185.906 M2.098 187.081 C 2.102 187.819,2.170 188.081,2.251 187.664 C 2.331 187.246,2.328 186.642,2.244 186.322 C 2.160 186.001,2.094 186.342,2.098 187.081 M344.119 187.836 C 342.449 190.355,339.303 193.619,337.039 195.178 C 335.046 196.550,334.653 197.018,336.284 196.076 C 338.769 194.641,343.671 189.419,345.438 186.326 C 346.110 185.149,345.236 186.148,344.119 187.836 M134.480 187.103 C 133.603 187.559,132.886 188.007,132.886 188.099 C 132.886 188.191,133.641 187.884,134.564 187.416 C 135.487 186.948,136.242 186.493,136.242 186.404 C 136.242 186.182,136.272 186.170,134.480 187.103 M35.648 188.255 C 35.648 188.901,35.717 189.165,35.802 188.842 C 35.886 188.519,35.886 187.991,35.802 187.668 C 35.717 187.345,35.648 187.609,35.648 188.255 M130.789 189.116 C 129.912 189.572,129.195 190.021,129.195 190.113 C 129.195 190.205,129.950 189.897,130.872 189.430 C 131.795 188.962,132.550 188.506,132.550 188.417 C 132.550 188.195,132.581 188.183,130.789 189.116 M1.769 190.268 C 1.769 191.099,1.835 191.439,1.915 191.023 C 1.995 190.608,1.995 189.929,1.915 189.513 C 1.835 189.098,1.769 189.438,1.769 190.268 M35.320 191.107 C 35.323 191.846,35.392 192.108,35.472 191.691 C 35.553 191.273,35.549 190.669,35.465 190.348 C 35.381 190.028,35.316 190.369,35.320 191.107 M127.097 191.129 C 126.221 191.586,125.503 192.034,125.503 192.126 C 125.503 192.218,126.258 191.911,127.181 191.443 C 128.104 190.975,128.859 190.520,128.859 190.431 C 128.859 190.209,128.889 190.197,127.097 191.129 M379.567 191.312 C 379.361 191.905,379.250 192.449,379.322 192.521 C 379.394 192.593,379.622 192.166,379.828 191.573 C 380.035 190.980,380.146 190.436,380.074 190.365 C 380.002 190.293,379.774 190.719,379.567 191.312 M123.742 192.976 C 123.049 193.341,122.483 193.715,122.483 193.807 C 122.483 193.898,123.087 193.665,123.826 193.289 C 124.564 192.912,125.168 192.531,125.168 192.443 C 125.168 192.223,125.165 192.224,123.742 192.976 M1.438 194.128 C 1.441 195.050,1.506 195.388,1.583 194.878 C 1.660 194.368,1.658 193.613,1.579 193.200 C 1.499 192.787,1.436 193.205,1.438 194.128 M378.578 193.806 C 378.016 195.040,378.123 195.304,378.731 194.182 C 379.015 193.658,379.184 193.166,379.108 193.090 C 379.031 193.013,378.793 193.335,378.578 193.806 M34.991 194.631 C 34.991 195.461,35.056 195.801,35.136 195.386 C 35.216 194.971,35.216 194.291,35.136 193.876 C 35.056 193.461,34.991 193.800,34.991 194.631 M255.728 193.792 C 255.728 193.977,255.944 194.505,256.208 194.966 C 256.472 195.428,256.688 195.654,256.688 195.470 C 256.688 195.285,256.472 194.757,256.208 194.295 C 255.944 193.834,255.728 193.607,255.728 193.792 M120.721 194.654 C 120.029 195.019,119.463 195.393,119.463 195.485 C 119.463 195.576,120.067 195.343,120.805 194.966 C 121.544 194.590,122.148 194.209,122.148 194.121 C 122.148 193.901,122.145 193.902,120.721 194.654 M377.244 196.828 C 376.234 198.909,376.346 199.200,377.388 197.199 C 377.853 196.304,378.177 195.515,378.107 195.444 C 378.036 195.374,377.648 195.997,377.244 196.828 M116.534 197.089 C 114.512 198.292,112.752 199.533,113.926 198.928 C 115.086 198.330,119.128 195.874,119.128 195.767 C 119.128 195.552,119.047 195.593,116.534 197.089 M256.711 196.095 C 256.711 196.459,258.714 200.336,258.902 200.336 C 258.995 200.336,258.597 199.392,258.019 198.238 C 256.923 196.052,256.711 195.705,256.711 196.095 M299.664 196.474 C 299.664 196.701,302.390 198.057,302.542 197.905 C 302.612 197.835,301.994 197.449,301.167 197.048 C 300.341 196.646,299.664 196.388,299.664 196.474 M333.221 197.483 C 332.391 197.928,331.831 198.299,331.976 198.307 C 332.333 198.327,334.899 197.009,334.899 196.805 C 334.899 196.583,334.913 196.577,333.221 197.483 M1.120 199.329 C 1.120 200.713,1.179 201.279,1.251 200.587 C 1.324 199.895,1.324 198.763,1.251 198.070 C 1.179 197.378,1.120 197.945,1.120 199.329 M34.668 198.826 C 34.670 199.933,34.732 200.345,34.807 199.742 C 34.882 199.139,34.880 198.233,34.804 197.729 C 34.727 197.225,34.666 197.718,34.668 198.826 M111.577 200.044 C 110.654 200.616,109.748 201.238,109.564 201.428 C 109.192 201.811,111.505 200.495,112.780 199.598 C 114.120 198.656,113.371 198.934,111.577 200.044 M327.685 199.506 C 326.946 199.749,326.644 199.949,327.013 199.949 C 327.383 199.949,328.213 199.745,328.859 199.497 C 330.365 198.917,329.451 198.924,327.685 199.506 M375.468 200.419 C 375.071 201.204,374.364 202.525,373.896 203.356 C 373.427 204.186,373.208 204.715,373.409 204.530 C 373.892 204.087,376.623 198.993,376.378 198.993 C 376.274 198.993,375.864 199.635,375.468 200.419 M311.493 200.567 C 311.816 200.651,312.345 200.651,312.668 200.567 C 312.991 200.482,312.727 200.413,312.081 200.413 C 311.435 200.413,311.170 200.482,311.493 200.567 M322.903 200.567 C 323.226 200.651,323.754 200.651,324.077 200.567 C 324.400 200.482,324.136 200.413,323.490 200.413 C 322.844 200.413,322.580 200.482,322.903 200.567 M259.668 201.846 C 260.043 202.584,260.598 203.490,260.901 203.859 C 261.204 204.228,261.040 203.775,260.536 202.852 C 259.410 200.787,258.731 199.999,259.668 201.846 M316.037 200.920 C 317.197 200.986,319.009 200.985,320.063 200.919 C 321.117 200.852,320.168 200.799,317.953 200.799 C 315.738 200.800,314.876 200.854,316.037 200.920 M105.115 204.199 C 103.040 205.586,101.342 206.797,101.342 206.891 C 101.342 207.057,108.239 202.552,108.876 201.969 C 109.690 201.225,108.591 201.876,105.115 204.199 M34.361 206.544 C 34.361 209.128,34.414 210.140,34.478 208.794 C 34.542 207.448,34.541 205.334,34.477 204.096 C 34.412 202.858,34.360 203.960,34.361 206.544 M0.816 211.409 C 0.816 215.931,0.864 217.781,0.922 215.520 C 0.980 213.259,0.980 209.560,0.922 207.299 C 0.864 205.038,0.816 206.888,0.816 211.409 M261.941 205.537 C 265.306 211.349,275.268 221.177,280.928 224.269 C 282.381 225.062,281.644 224.486,277.799 221.821 C 274.082 219.246,267.401 212.697,264.563 208.849 C 261.170 204.247,261.261 204.362,261.941 205.537 M370.915 207.970 C 367.130 213.422,361.822 218.917,356.983 222.394 C 355.190 223.681,354.738 224.308,356.460 223.117 C 361.825 219.407,369.515 211.259,372.636 205.976 C 373.703 204.169,372.939 205.055,370.915 207.970 M96.634 210.194 C 86.406 217.887,77.598 226.618,71.118 235.487 C 68.981 238.412,70.456 236.772,73.486 232.855 C 79.343 225.283,87.585 217.327,96.477 210.661 C 100.641 207.538,101.253 207.047,100.979 207.047 C 100.891 207.047,98.935 208.463,96.634 210.194 M34.360 217.114 C 34.360 219.606,34.412 220.625,34.477 219.379 C 34.542 218.133,34.542 216.095,34.477 214.849 C 34.412 213.603,34.360 214.622,34.360 217.114 M39.016 223.238 C 37.245 226.069,37.185 226.174,37.368 226.174 C 37.455 226.174,38.014 225.382,38.610 224.413 C 39.206 223.444,39.915 222.311,40.187 221.896 C 40.459 221.481,40.602 221.141,40.505 221.141 C 40.408 221.141,39.738 222.085,39.016 223.238 M1.120 223.826 C 1.120 225.210,1.179 225.776,1.251 225.084 C 1.324 224.392,1.324 223.259,1.251 222.567 C 1.179 221.875,1.120 222.441,1.120 223.826 M34.668 224.664 C 34.670 225.772,34.732 226.184,34.807 225.581 C 34.882 224.978,34.880 224.072,34.804 223.568 C 34.727 223.064,34.666 223.557,34.668 224.664 M352.262 225.468 C 350.218 226.667,349.764 227.134,351.510 226.242 C 352.806 225.580,354.371 224.511,354.027 224.524 C 353.935 224.528,353.140 224.952,352.262 225.468 M283.893 226.005 C 283.893 226.230,287.960 228.259,288.110 228.109 C 288.178 228.041,287.257 227.504,286.063 226.915 C 284.869 226.327,283.893 225.917,283.893 226.005 M36.409 227.517 C 36.123 228.070,35.964 228.523,36.057 228.523 C 36.149 228.523,36.459 228.070,36.745 227.517 C 37.031 226.963,37.190 226.510,37.098 226.510 C 37.005 226.510,36.696 226.963,36.409 227.517 M348.322 227.685 C 347.492 228.129,346.931 228.500,347.077 228.508 C 347.433 228.529,350.000 227.210,350.000 227.007 C 350.000 226.784,350.014 226.779,348.322 227.685 M1.443 228.859 C 1.443 229.874,1.506 230.289,1.583 229.782 C 1.660 229.274,1.660 228.444,1.583 227.936 C 1.506 227.429,1.443 227.844,1.443 228.859 M34.953 228.440 C 34.900 229.851,35.312 230.352,35.699 229.345 C 35.808 229.059,35.759 228.910,35.588 229.016 C 35.418 229.121,35.217 228.714,35.143 228.110 C 35.024 227.152,35.000 227.193,34.953 228.440 M345.302 229.027 C 344.841 229.291,344.614 229.506,344.799 229.506 C 344.983 229.506,345.512 229.291,345.973 229.027 C 346.435 228.763,346.661 228.547,346.477 228.547 C 346.292 228.547,345.763 228.763,345.302 229.027 M292.617 229.980 C 292.617 230.179,296.644 231.553,297.129 231.519 C 297.324 231.506,296.728 231.226,295.805 230.897 C 293.258 229.990,292.617 229.806,292.617 229.980 M1.769 232.550 C 1.769 233.381,1.835 233.721,1.915 233.305 C 1.995 232.890,1.995 232.211,1.915 231.795 C 1.835 231.380,1.769 231.720,1.769 232.550 M335.570 232.215 C 334.896 232.431,334.863 232.485,335.403 232.493 C 335.772 232.499,336.376 232.373,336.745 232.215 C 337.600 231.847,336.718 231.847,335.570 232.215 M327.601 233.788 C 327.924 233.873,328.452 233.873,328.775 233.788 C 329.098 233.704,328.834 233.635,328.188 233.635 C 327.542 233.635,327.278 233.704,327.601 233.788 M310.156 234.133 C 310.666 234.211,311.421 234.208,311.833 234.129 C 312.246 234.049,311.829 233.986,310.906 233.989 C 309.983 233.991,309.646 234.056,310.156 234.133 M324.413 234.129 C 324.828 234.209,325.508 234.209,325.923 234.129 C 326.338 234.049,325.998 233.984,325.168 233.984 C 324.337 233.984,323.997 234.049,324.413 234.129 M315.505 234.477 C 316.743 234.541,318.857 234.542,320.203 234.478 C 321.550 234.414,320.537 234.361,317.953 234.361 C 315.369 234.360,314.268 234.412,315.505 234.477 M2.098 235.738 C 2.102 236.477,2.170 236.739,2.251 236.322 C 2.331 235.904,2.328 235.300,2.244 234.979 C 2.160 234.658,2.094 235.000,2.098 235.738 M68.869 238.674 C 67.570 240.601,66.256 242.864,66.677 242.450 C 67.150 241.983,70.154 237.248,69.976 237.248 C 69.896 237.248,69.398 237.890,68.869 238.674 M2.427 238.591 C 2.427 239.237,2.496 239.501,2.580 239.178 C 2.665 238.855,2.665 238.326,2.580 238.003 C 2.496 237.680,2.427 237.945,2.427 238.591 M2.762 240.940 C 2.762 241.586,2.831 241.850,2.916 241.527 C 3.000 241.204,3.000 240.675,2.916 240.352 C 2.831 240.029,2.762 240.294,2.762 240.940 M64.430 245.973 C 64.053 246.711,63.820 247.315,63.913 247.315 C 64.005 247.315,64.388 246.711,64.765 245.973 C 65.142 245.235,65.374 244.631,65.282 244.631 C 65.190 244.631,64.806 245.235,64.430 245.973 M62.231 250.033 C 61.754 250.975,61.421 251.801,61.489 251.870 C 61.558 251.938,62.020 251.168,62.515 250.158 C 63.010 249.148,63.344 248.322,63.257 248.322 C 63.170 248.322,62.708 249.092,62.231 250.033 M154.698 251.887 C 133.714 254.717,116.199 267.429,106.206 287.081 C 95.177 308.769,100.865 339.839,120.490 365.101 C 164.418 421.647,270.389 412.559,342.744 346.039 C 367.546 323.238,386.625 291.370,395.974 257.130 C 397.665 250.937,397.626 250.707,395.382 253.649 C 384.198 268.314,359.455 283.774,336.577 290.392 C 301.797 300.453,259.484 292.278,218.289 267.540 C 196.032 254.174,175.396 249.095,154.698 251.887 M60.295 254.210 C 59.507 255.863,59.618 256.145,60.442 254.582 C 60.816 253.873,61.063 253.233,60.990 253.160 C 60.918 253.088,60.605 253.560,60.295 254.210 M57.755 260.440 C 57.549 261.033,57.438 261.577,57.510 261.649 C 57.582 261.721,57.810 261.294,58.016 260.701 C 58.223 260.108,58.334 259.564,58.262 259.492 C 58.190 259.420,57.962 259.847,57.755 260.440 M6.921 262.081 C 7.038 262.727,7.266 263.557,7.428 263.926 C 7.629 264.387,7.655 264.229,7.508 263.423 C 7.391 262.777,7.163 261.946,7.002 261.577 C 6.800 261.116,6.775 261.274,6.921 262.081 M7.765 265.101 C 7.765 265.378,7.895 265.906,8.054 266.275 C 8.235 266.698,8.342 266.760,8.342 266.443 C 8.342 266.166,8.212 265.638,8.054 265.268 C 7.872 264.845,7.765 264.783,7.765 265.101 M55.561 266.970 C 55.437 267.462,55.401 267.929,55.480 268.008 C 55.559 268.087,55.725 267.750,55.849 267.258 C 55.972 266.766,56.008 266.299,55.929 266.220 C 55.850 266.141,55.684 266.478,55.561 266.970 M8.436 267.450 C 8.436 267.727,8.566 268.255,8.725 268.624 C 8.907 269.047,9.013 269.109,9.013 268.792 C 9.013 268.515,8.883 267.987,8.725 267.617 C 8.543 267.194,8.436 267.132,8.436 267.450 M54.590 270.549 C 54.280 271.781,54.040 272.984,54.057 273.223 C 54.074 273.462,54.372 272.601,54.720 271.309 C 55.068 270.017,55.308 268.813,55.253 268.634 C 55.197 268.455,54.899 269.317,54.590 270.549 M9.757 271.663 C 9.721 272.166,11.121 276.239,11.276 276.084 C 11.347 276.013,11.039 274.910,10.593 273.632 C 10.147 272.354,9.770 271.468,9.757 271.663 M11.937 278.188 C 12.061 278.649,12.302 279.253,12.473 279.530 C 12.689 279.880,12.715 279.778,12.559 279.195 C 12.436 278.733,12.195 278.129,12.024 277.852 C 11.808 277.503,11.781 277.605,11.937 278.188 M52.427 282.215 C 52.427 282.861,52.496 283.125,52.580 282.802 C 52.665 282.479,52.665 281.951,52.580 281.628 C 52.496 281.305,52.427 281.569,52.427 282.215 M14.118 283.725 C 14.118 283.909,14.334 284.438,14.597 284.899 C 14.861 285.361,15.077 285.587,15.077 285.403 C 15.077 285.218,14.861 284.690,14.597 284.228 C 14.334 283.767,14.118 283.540,14.118 283.725 M52.105 284.899 C 52.105 285.730,52.170 286.070,52.250 285.654 C 52.330 285.239,52.330 284.560,52.250 284.144 C 52.170 283.729,52.105 284.069,52.105 284.899 M175.336 285.916 C 184.109 287.421,189.955 289.866,201.845 297.001 C 235.612 317.267,268.355 327.320,304.166 328.418 L 311.184 328.633 310.206 329.437 C 258.805 371.705,183.959 381.366,152.139 349.840 C 137.447 335.285,130.438 313.286,136.795 301.680 C 144.520 287.574,156.482 282.682,175.336 285.916 M15.124 286.074 C 15.124 286.258,15.340 286.787,15.604 287.248 C 15.868 287.710,16.084 287.936,16.084 287.752 C 16.084 287.567,15.868 287.039,15.604 286.577 C 15.340 286.116,15.124 285.889,15.124 286.074 M51.788 289.430 C 51.789 290.721,51.850 291.209,51.923 290.513 C 51.995 289.816,51.994 288.759,51.920 288.164 C 51.846 287.568,51.786 288.138,51.788 289.430 M16.141 288.423 C 16.141 288.607,16.805 290.042,17.617 291.611 C 18.429 293.180,19.094 294.312,19.094 294.128 C 19.094 293.943,18.429 292.508,17.617 290.940 C 16.805 289.371,16.141 288.238,16.141 288.423 M20.302 296.980 C 20.953 298.272,21.560 299.329,21.653 299.329 C 21.745 299.329,21.288 298.272,20.638 296.980 C 19.987 295.688,19.379 294.631,19.287 294.631 C 19.195 294.631,19.651 295.688,20.302 296.980 M51.788 300.503 C 51.789 301.795,51.850 302.283,51.923 301.586 C 51.995 300.890,51.994 299.833,51.920 299.237 C 51.846 298.642,51.786 299.211,51.788 300.503 M22.483 301.007 C 22.860 301.745,23.244 302.349,23.336 302.349 C 23.428 302.349,23.195 301.745,22.819 301.007 C 22.442 300.268,22.059 299.664,21.966 299.664 C 21.874 299.664,22.107 300.268,22.483 301.007 M23.993 303.691 C 24.280 304.245,24.589 304.698,24.682 304.698 C 24.774 304.698,24.615 304.245,24.329 303.691 C 24.043 303.138,23.733 302.685,23.640 302.685 C 23.548 302.685,23.707 303.138,23.993 303.691 M52.105 304.698 C 52.105 305.529,52.170 305.868,52.250 305.453 C 52.330 305.038,52.330 304.358,52.250 303.943 C 52.170 303.528,52.105 303.867,52.105 304.698 M25.180 305.705 C 26.491 308.263,33.733 319.463,34.077 319.463 C 34.168 319.463,33.209 317.915,31.945 316.023 C 30.681 314.132,28.689 310.998,27.519 309.060 C 25.457 305.648,24.300 303.988,25.180 305.705 M52.427 307.718 C 52.427 308.364,52.496 308.628,52.580 308.305 C 52.665 307.982,52.665 307.454,52.580 307.131 C 52.496 306.808,52.427 307.072,52.427 307.718 M35.511 321.644 C 43.715 333.540,61.493 352.291,71.309 359.403 L 72.315 360.133 71.451 359.345 C 70.975 358.912,68.710 356.956,66.417 354.999 C 56.025 346.131,46.885 336.361,38.350 325.000 C 34.480 319.848,33.354 318.517,35.511 321.644 M55.416 321.477 C 55.416 321.753,55.546 322.282,55.705 322.651 C 55.886 323.074,55.993 323.136,55.993 322.819 C 55.993 322.542,55.863 322.013,55.705 321.644 C 55.523 321.221,55.416 321.159,55.416 321.477 M57.742 328.265 C 57.703 328.662,58.797 331.248,58.942 331.103 C 59.015 331.030,58.780 330.307,58.420 329.495 C 58.060 328.684,57.755 328.130,57.742 328.265 M59.084 331.711 C 59.084 331.896,59.300 332.424,59.564 332.886 C 59.828 333.347,60.043 333.574,60.043 333.389 C 60.043 333.205,59.828 332.676,59.564 332.215 C 59.300 331.753,59.084 331.527,59.084 331.711 M60.403 334.685 C 60.403 335.049,62.405 338.926,62.594 338.926 C 62.686 338.926,62.288 337.982,61.710 336.829 C 60.614 334.642,60.403 334.296,60.403 334.685 M63.591 340.940 C 63.877 341.493,64.187 341.946,64.279 341.946 C 64.371 341.946,64.212 341.493,63.926 340.940 C 63.640 340.386,63.330 339.933,63.238 339.933 C 63.146 339.933,63.304 340.386,63.591 340.940 M64.525 342.534 C 65.451 344.253,69.216 350.336,69.355 350.336 C 69.457 350.336,69.322 349.996,69.055 349.581 C 68.788 349.165,67.695 347.353,66.626 345.554 C 65.557 343.754,64.617 342.282,64.536 342.282 C 64.456 342.282,64.451 342.395,64.525 342.534 M69.974 351.532 C 70.286 352.098,70.840 352.929,71.205 353.378 L 71.868 354.195 71.301 353.166 C 70.989 352.600,70.435 351.769,70.070 351.320 L 69.407 350.503 69.974 351.532 M75.996 360.618 C 78.696 364.572,78.621 364.709,75.191 362.098 C 73.702 360.965,72.483 360.112,72.483 360.205 C 72.483 360.392,77.125 363.955,78.678 364.961 C 79.396 365.426,79.587 365.464,79.366 365.101 C 78.457 363.607,74.089 357.383,73.950 357.383 C 73.861 357.383,74.781 358.838,75.996 360.618 " stroke="none" fill="#a51c2b" fill-rule="evenodd"></path><path id="path1" d="M32.429 99.748 C 2.541 144.995,-7.128 210.884,8.115 265.436 C 18.142 301.325,42.991 337.453,73.931 361.129 C 76.112 362.797,77.961 364.097,78.041 364.017 C 78.122 363.937,76.307 361.071,74.010 357.648 C 57.262 332.698,51.664 316.981,51.684 294.968 C 51.718 256.328,71.793 224.366,111.080 200.400 L 115.281 197.838 105.214 184.503 L 95.148 171.167 93.631 172.051 C 70.588 185.469,48.865 206.557,37.081 226.948 C 35.073 230.421,35.036 230.435,34.775 227.768 C 31.445 193.690,40.226 151.238,56.159 124.384 C 57.093 122.811,57.618 121.583,57.467 121.328 C 56.648 119.944,36.783 93.960,36.544 93.960 C 36.384 93.960,34.532 96.565,32.429 99.748 " stroke="none" fill="#fc7cb4" fill-rule="evenodd"></path><path id="path2" d="M110.067 50.343 C 82.319 51.797,57.644 65.906,38.320 91.368 L 36.595 93.641 45.022 104.790 C 49.656 110.922,54.371 117.179,55.499 118.694 C 58.003 122.057,57.398 122.205,60.517 117.467 C 77.253 92.046,99.025 80.458,123.347 84.025 C 139.190 86.348,145.933 92.266,149.838 107.275 C 155.611 129.460,146.042 143.140,111.745 161.734 C 100.189 167.999,95.283 170.902,95.456 171.376 C 95.647 171.897,115.086 197.651,115.289 197.651 C 115.374 197.651,119.028 195.666,123.409 193.241 C 127.791 190.815,133.565 187.625,136.242 186.151 C 179.099 162.549,194.035 127.663,178.298 87.919 C 169.445 65.563,148.982 51.897,122.278 50.508 C 120.268 50.404,117.718 50.270,116.611 50.212 C 115.503 50.154,112.559 50.213,110.067 50.343 " stroke="none" fill="#d73ddb" fill-rule="evenodd"></path><path id="path3" d="M327.654 69.990 C 320.842 74.906,314.774 79.300,314.170 79.755 L 313.072 80.583 317.404 85.174 C 346.214 115.713,357.417 145.945,350.335 174.043 C 345.815 191.977,335.090 200.793,317.785 200.799 C 300.400 200.805,289.437 192.300,284.593 175.048 C 282.256 166.728,281.812 161.651,281.858 143.809 C 281.902 126.797,280.952 105.337,280.119 104.504 C 280.069 104.454,272.957 109.520,264.314 115.762 L 248.601 127.112 248.579 143.674 C 248.536 176.319,252.625 192.965,264.599 208.882 C 289.824 242.415,345.546 242.899,369.631 209.794 C 393.264 177.310,390.590 130.242,362.744 88.591 C 356.778 79.666,342.274 61.953,340.273 61.147 C 340.144 61.096,334.466 65.075,327.654 69.990 " stroke="none" fill="#1c5cb4" fill-rule="evenodd"></path><path id="path4" d="M188.255 0.370 C 171.231 1.709,153.999 5.440,138.139 11.221 C 133.855 12.782,126.831 15.678,126.510 16.016 C 126.418 16.113,132.760 16.089,140.604 15.963 C 171.095 15.474,187.669 20.070,206.620 34.271 C 233.485 54.401,246.772 83.328,248.414 125.260 L 248.490 127.197 264.094 115.927 C 272.676 109.728,279.809 104.548,279.944 104.415 C 280.236 104.127,279.186 96.848,278.002 90.950 C 275.000 75.998,269.326 60.479,262.610 48.853 C 260.708 45.561,260.714 45.556,264.508 47.301 C 279.969 54.410,301.806 69.329,311.391 79.330 C 312.027 79.994,312.666 80.537,312.810 80.537 C 313.017 80.537,338.997 61.961,340.029 61.075 C 340.699 60.500,323.842 45.696,315.268 39.330 C 276.001 10.172,232.665 -3.121,188.255 0.370 " stroke="none" fill="#279b95" fill-rule="evenodd"></path></g></svg>